# xmcd
#
# Track frame offsets:
#	150
#	10705
#	21610
#	34637
#	43965
#	58305
#	72485
#	86915
#	100710
#	109580
#	121735
#
# Disc length: 1755 seconds
#
# Revision: 1
# Processed by: cddbd v1.5.1PL0 Copyright (c) Steve Scherf et al.
# Submitted via: audiograbber 1.80.04
#
DISCID=9406d90b
DTITLE=Tim O Connor "Hitch Hiking Poet" - Run Over by Love
DYEAR=1997
DGENRE=Blues
TTITLE0=Who Stole the Isopropyl Alcohol
TTITLE1=New York Turnpike
TTITLE2=No Mad
TTITLE3=Cheap Haircut
TTITLE4=Run Over by Love
TTITLE5=Angelina and the Gypsy
TTITLE6=Freak for a Week
TTITLE7=Broke and Stinky
TTITLE8=Angel in Disguise
TTITLE9=I Hate Rubbers
TTITLE10=Don't Touch
EXTD=
EXTT0=
EXTT1=
EXTT2=
EXTT3=
EXTT4=
EXTT5=
EXTT6=
EXTT7=
EXTT8=
EXTT9=
EXTT10=
PLAYORDER=
